<?xml version="1.0" standalone="no"?>
<!DOCTYPE svg PUBLIC "-//W3C//DTD SVG 20010904//EN"
 "http://www.w3.org/TR/2001/REC-SVG-20010904/DTD/svg10.dtd">
<svg version="1.0" xmlns="http://www.w3.org/2000/svg"
 width="260.000000pt" height="260.000000pt" viewBox="0 0 260.000000 260.000000"
 preserveAspectRatio="xMidYMid meet">
<metadata>
Created by potrace 1.11, written by Peter Selinger 2001-2013
</metadata>
<g transform="translate(0.000000,260.000000) scale(0.100000,-0.100000)"
fill="#000000" stroke="none">
<path d="M1860 2403 c-79 -8 -249 -47 -329 -75 -403 -141 -719 -435 -839 -778
-62 -178 -69 -363 -17 -479 38 -83 117 -156 236 -215 50 -25 98 -46 108 -46 9
-1 -19 -14 -62 -30 -321 -119 -617 -355 -617 -491 0 -37 42 -85 87 -100 77
-25 197 9 307 88 28 20 151 135 273 256 l221 219 246 -36 c153 -23 259 -35
281 -30 110 20 115 120 7 140 -33 6 -29 9 74 50 89 34 116 50 147 85 30 34 37
49 37 84 0 36 -5 48 -30 69 -61 50 -151 43 -216 -17 -19 -18 -53 -61 -77 -97
-23 -35 -61 -79 -85 -97 -59 -45 -162 -75 -242 -71 l-63 3 123 130 c179 189
475 518 549 610 238 296 340 557 274 705 -27 62 -80 105 -143 119 -48 10 -170
12 -250 4z m270 -91 c76 -38 92 -127 51 -275 -41 -148 -134 -311 -276 -482
-36 -44 -202 -223 -367 -398 l-301 -319 -36 7 c-145 25 -263 71 -324 125 -182
160 -189 443 -18 687 51 72 178 201 271 276 163 130 400 259 605 326 212 70
330 86 395 53z m-1126 -1718 c-210 -219 -244 -250 -319 -285 -82 -38 -127 -45
-148 -24 -24 24 -21 47 14 118 101 202 294 332 533 357 39 4 75 8 80 9 4 0
-68 -78 -160 -175z"/>
</g>
</svg>
